# xmcd
#
# Track frame offsets:
#	150
#	12972
#	28188
#	38250
#	52691
#	64740
#	78209
#	87919
#	100243
#	115101
#	130934
#	142898
#	157285
#
# Disc length: 2260 seconds
#
# Revision: 0
# Processed by: cddbd v1.5.2PL0 Copyright (c) Steve Scherf et al.
# Submitted via: EasyCDDAExtractor 12.0.1.1
#
DISCID=9908d20d
DTITLE=Onkel Tuka - Hvit Honning
DYEAR=2011
DGENRE=Bluegrass
TTITLE0=Dama Mi
TTITLE1=Halden Blues
TTITLE2=Frøken Honninglår
TTITLE3=List
TTITLE4=Min Kjære Gikk Til Havet
TTITLE5=Kuppel
TTITLE6=Apache 59
TTITLE7=Tidlig Om Morran
TTITLE8=Halden, Blod Og Penger
TTITLE9=Skraphandler
TTITLE10=Hvalerferga II
TTITLE11=Fiskene I Havet
TTITLE12=Langt Inn I Det Blå
EXTD=
EXTT0=
EXTT1=
EXTT2=
EXTT3=
EXTT4=
EXTT5=
EXTT6=
EXTT7=
EXTT8=
EXTT9=
EXTT10=
EXTT11=
EXTT12=
PLAYORDER=
